**ABCDEFGHIJKLMNOPQRSTUVWXYZabcdefghijklmnopqrstuvwxyz**************************
**PARASOLID !"#$%&'()*+,-./:;<=>?@[\]^_`{|}~0123456789**************************
**PART1;
MC=AMD64;
MC_MODEL=AMD64 Family 23 Model 8 Stepping 2, AuthenticAMD;
MC_ID=unknown;
OS=Windows_NT;
OS_RELEASE=unknown;
FRU=Parasolid Version 31.0, build 264, 12-10-2018;
APPL=SOLIDWORKS 2019-2019057;
SITE=;
USER=unknown;
FORMAT=text;
GUISE=transmit;
KEY=makeProjectedPlanarWire;
FILE=makeProjectedPlanarWire.x_t;
DATE=Wed Sep  9 14:46:20 2020;
**PART2;
SCH=SCH_3100264_31001;
USFLD_SIZE=0;
**PART3;
**END_OF_HEADER*****************************************************************
T51 : TRANSMIT FILE created by modeller version 310026423 SCH_3100264_31001_1300
6215 0 12 34 CCCCCCI4 mesh1006 0 I8 polyline1008 0 CCCCCCCDI5 owner1040 0 CCCCCC
I13 boundary_mesh1006 0 I17 boundary_polyline1008 0 CCCA16 index_map_offset0 0 1
 dA9 index_map82 0 A17 node_id_index_map82 0 A20 schema_embedding_map82 0 A5 chi
ld12 0 A14 lowest_node_id0 0 1 dA16 mesh_offset_data206 0 Z1 360 0 0 0 0 0 0 0 0
 1e3 1e-8 0 2 0 1 0 3 1 3 4 5 6 0 0 7 8 9 0 0 0 0 0 0 0 13 255 3 306 0 1 0 10 0
 0 7 10 50 255 4 3 0 10 0 0 0 +0 0 254e-9 0 0 1 1 0 0 31 255 5 154 0 8 11 0 0 +0
 0 254e-9 0 0 1 1 0 0 .001651 29 255 6 358 0 9 12 0 0 .006450000094 254e-9 19 8
 CCCCCCCA5 owner12 0 Z7 305 0 1 0 0 3 V0 16 255 8 152 0 ?13 0 14 5 0 0 1 18 255
 9 355 0 15 0 16 6 ?1 17 255 15 0 0 0 0 9 17 18 0 19 -18 16 296 0 20 9 21 12 ?1
 17 20 0 0 0 0 16 22 23 0 24 +18 21 293 0 17 16 25 26 ?1 29 12 298 0 16 26 6 -.0
00903753264655259 .00535831942480259 254e-9 29 26 295 0 21 27 12 -.0005138764979
58103 .00642949703767301 254e-9 29 27 292 0 25 28 26 .000513876497958103 .006429
49703767301 254e-9 18 25 290 0 29 21 30 27 ?1 29 28 289 0 30 31 27 .000903753264
655259 .00535831942480259 254e-9 18 30 287 0 32 25 33 28 ?1 29 31 286 0 33 34 28
 .001896486426456715 .00509231737579829 254e-9 18 33 284 0 35 30 36 31 ?1 29 34
 283 0 36 37 31 .002769718417197005 .00582504601716067 254e-9 18 36 281 0 38 33
 39 34 ?1 29 37 280 0 39 40 34 .003659778620476005 .00531116951920257 254e-9 18
 39 278 0 41 36 42 37 ?1 29 40 277 0 42 43 37 .00346183299834587 .00418856411114
303 254e-9 18 42 275 0 44 39 45 40 ?1 29 43 274 0 45 46 40 .00418856411114301 .0
03461832998345895 254e-9 18 45 272 0 47 42 48 43 ?1 29 46 271 0 48 49 43 .005311
16951920257 .003659778620476005 254e-9 18 48 269 0 50 45 51 46 ?1 29 49 268 0 51
 52 46 .00582504601716067 .002769718417197005 254e-9 18 51 266 0 53 48 54 49 ?1
 29 52 265 0 54 55 49 .00509231737579829 .001896486426456715 254e-9 18 54 263 0
 56 51 57 52 ?1 29 55 262 0 57 58 52 .00535831942480258 .000903753264655292 254e
-9 18 57 260 0 59 54 60 55 ?1 29 58 259 0 60 61 55 .00642949703767301 .000513876
497958104 254e-9 18 60 257 0 62 57 63 58 ?1 29 61 256 0 63 64 58 .00642949703767
301 -.000513876497958103 254e-9 18 63 254 0 65 60 66 61 ?1 29 64 253 0 66 67 61
 .00535831942480259 -.000903753264655259 254e-9 18 66 251 0 68 63 69 64 ?1 29 67
 250 0 69 70 64 .0050923173757983 -.001896486426456685 254e-9 18 69 248 0 71 66
 72 67 ?1 29 70 247 0 72 73 67 .00582504601716067 -.002769718417197005 254e-9 18
 72 245 0 74 69 75 70 ?1 29 73 244 0 75 76 70 .00531116951920257 -.0036597786204
76005 254e-9 18 75 242 0 77 72 78 73 ?1 29 76 241 0 78 79 73 .00418856411114303
 -.00346183299834587 254e-9 18 78 239 0 80 75 81 76 ?1 29 79 238 0 81 82 76 .003
461832998345895 -.00418856411114301 254e-9 18 81 236 0 83 78 84 79 ?1 29 82 235
 0 84 85 79 .003659778620476005 -.00531116951920257 254e-9 18 84 233 0 86 81 87
 82 ?1 29 85 232 0 87 88 82 .00276971841719701 -.00582504601716067 254e-9 18 87
 230 0 89 84 90 85 ?1 29 88 229 0 90 91 85 .00189648642645672 -.0050923173757982
9 254e-9 18 90 227 0 92 87 93 88 ?1 29 91 226 0 93 94 88 .000903753264655293 -.0
0535831942480258 254e-9 18 93 224 0 95 90 96 91 ?1 29 94 223 0 96 97 91 .0005138
76497958104 -.00642949703767301 254e-9 18 96 221 0 98 93 99 94 ?1 29 97 220 0 99
 100 94 -.000513876497958102 -.00642949703767301 254e-9 18 99 218 0 101 96 102 9
7 ?1 29 100 217 0 102 103 97 -.000903753264655258 -.00535831942480259 254e-9 18
 102 215 0 104 99 105 100 ?1 29 103 214 0 105 106 100 -.001896486426456685 -.005
0923173757983 254e-9 18 105 212 0 107 102 108 103 ?1 29 106 211 0 108 109 103 -.
002769718417197005 -.00582504601716067 254e-9 18 108 209 0 110 105 111 106 ?1 29
 109 208 0 111 112 106 -.003659778620476005 -.00531116951920257 254e-9 18 111 20
6 0 113 108 114 109 ?1 29 112 205 0 114 115 109 -.003461832998345865 -.004188564
11114303 254e-9 18 114 203 0 116 111 117 112 ?1 29 115 202 0 117 118 112 -.00418
856411114301 -.003461832998345895 254e-9 18 117 200 0 119 114 120 115 ?1 29 118
 199 0 120 121 115 -.00531116951920257 -.003659778620476005 254e-9 18 120 197 0
 122 117 123 118 ?1 29 121 196 0 123 124 118 -.00582504601716067 -.0027697184171
9701 254e-9 18 123 194 0 125 120 126 121 ?1 29 124 193 0 126 127 121 -.005092317
37579829 -.00189648642645672 254e-9 18 126 191 0 128 123 129 124 ?1 29 127 190 0
 129 130 124 -.00535831942480258 -.000903753264655293 254e-9 18 129 188 0 131 12
6 132 127 ?1 29 130 187 0 132 133 127 -.00642949703767301 -.000513876497958104 2
54e-9 18 132 185 0 134 129 135 130 ?1 29 133 184 0 135 136 130 -.006429497037673
01 .000513876497958102 254e-9 18 135 182 0 137 132 138 133 ?1 29 136 181 0 138 1
39 133 -.00535831942480259 .000903753264655258 254e-9 18 138 179 0 140 135 141 1
36 ?1 29 139 178 0 141 142 136 -.0050923173757983 .001896486426456685 254e-9 18
 141 176 0 143 138 144 139 ?1 29 142 175 0 144 145 139 -.00582504601716067 .0027
69718417197 254e-9 18 144 173 0 146 141 147 142 ?1 29 145 172 0 147 148 142 -.00
531116951920257 .003659778620476 254e-9 18 147 170 0 149 144 150 145 ?1 29 148 1
69 0 150 151 145 -.004188564111143035 .003461832998345865 254e-9 18 150 167 0 15
2 147 153 148 ?1 29 151 166 0 153 154 148 -.003461832998345895 .0041885641111430
1 254e-9 18 153 164 0 155 150 156 151 ?1 29 154 163 0 156 157 151 -.003659778620
476005 .00531116951920257 254e-9 18 156 161 0 158 153 159 154 ?1 29 157 160 0 15
9 160 154 -.002769718417197005 .00582504601716067 254e-9 18 159 158 0 161 156 16
2 157 ?1 29 160 157 0 162 0 157 -.001896486426456715 .00509231737579829 254e-9 1
8 162 155 0 22 159 0 160 ?1 17 22 0 163 161 24 162 20 23 0 164 -15 255 163 6 0 2
2 10 165 17 161 0 163 158 22 159 164 166 0 167 -17 24 0 163 22 17 16 168 14 0 0
 -16 23 8 0 ?20 166 0 169 0 0 1 17 164 0 0 0 0 162 161 166 0 0 +16 166 11 0 ?164
 170 23 171 0 0 1 16 170 14 0 ?158 172 166 173 0 0 1 30 255 171 13 0 166 169 173
 0 +.001723894308976245 .002054457235975135 254e-9 .766044443118976 -.6427876096
86542 0 31 169 10 0 23 0 171 0 +-.003064196129336045 .01143573563903784 254e-9 0
 0 1 1 0 0 .00645000009399997 31 173 16 0 170 171 174 0 +0 0 254e-9 0 0 1 1 0 0
 .00645000009399998 30 174 19 0 172 173 175 0 +-.002641159311831535 -.0004657076
47025233 254e-9 -.1736481776669055 .984807753012212 0 16 172 17 0 ?176 177 170 1
74 0 0 1 31 175 22 0 177 174 178 0 +-.00837153950970189 .00837153950970182 254e-
9 0 0 1 1 0 0 .00645000009399998 16 177 20 0 ?179 180 172 175 0 0 1 30 178 25 0
 180 175 181 0 +.000465707647025276 .00264115931183136 254e-9 .984807753012208 -
.173648177666932 0 16 180 23 0 ?182 183 177 178 0 0 1 31 181 28 0 183 178 184 0
 +0 0 254e-9 0 0 1 1 0 0 .00645000009399998 16 183 26 0 ?146 185 180 181 0 0 1 3
0 184 31 0 185 181 186 0 +-.002054457235975275 -.001723894308976285 254e-9 -.642
787609686526 .76604444311899 0 16 185 29 0 ?187 188 183 184 0 0 1 31 186 34 0 18
8 184 189 0 +-.01143573563903786 .003064196129335965 254e-9 0 0 1 1 0 0 .0064500
0009399998 16 188 32 0 ?190 191 185 186 0 0 1 30 189 37 0 191 186 192 0 +-.00091
7265002855112 .00252016488300042 254e-9 .939692620785909 .342020143325666 0 16 1
91 35 0 ?193 194 188 189 0 0 1 31 192 40 0 194 189 195 0 +0 0 254e-9 0 0 1 1 0 0
 .00645000009399998 16 194 38 0 ?134 196 191 192 0 0 1 30 195 43 0 196 192 197 0
 +-.000917265002855228 -.00252016488300054 254e-9 -.939692620785901 .34202014332
569 0 16 196 41 0 ?198 199 194 195 0 0 1 31 197 46 0 199 195 200 0 +-.0114357356
3903784 -.00306419612933604 254e-9 0 0 1 1 0 0 .00645000009399998 16 199 44 0 ?2
01 202 196 197 0 0 1 30 200 49 0 202 197 203 0 +-.002054457235975145 .0017238943
08976245 254e-9 .642787609686541 .766044443118977 0 16 202 47 0 ?204 205 199 200
 0 0 1 31 203 52 0 205 200 206 0 +0 0 254e-9 0 0 1 1 0 0 .00645000009399998 16 2
05 50 0 ?122 207 202 203 0 0 1 30 206 55 0 207 203 208 0 +.000465707647025241 -.
00264115931183151 254e-9 -.984807753012212 -.17364817766691 0 16 207 53 0 ?209 2
10 205 206 0 0 1 31 208 58 0 210 206 211 0 +-.00837153950970183 -.00837153950970
188 254e-9 0 0 1 1 0 0 .00645000009399998 16 210 56 0 ?212 213 207 208 0 0 1 30
 211 61 0 213 208 214 0 +-.002641159311831355 .000465707647025278 254e-9 .173648
177666933 .984807753012208 0 16 213 59 0 ?215 216 210 211 0 0 1 31 214 64 0 216
 211 217 0 +0 0 254e-9 0 0 1 1 0 0 .00645000009399998 16 216 62 0 ?110 218 213 2
14 0 0 1 30 217 67 0 218 214 219 0 +.001723894308976285 -.002054457235975285 254
e-9 -.766044443118991 -.642787609686524 0 16 218 65 0 ?220 221 216 217 0 0 1 31
 219 70 0 221 217 222 0 +-.00306419612933597 -.01143573563903786 254e-9 0 0 1 1
 0 0 .00645000009399998 16 221 68 0 ?223 224 218 219 0 0 1 30 222 73 0 224 219 2
25 0 +-.00252016488300042 -.000917265002855112 254e-9 -.342020143325666 .9396926
20785909 0 16 224 71 0 ?226 227 221 222 0 0 1 31 225 76 0 227 222 228 0 +0 0 254
e-9 0 0 1 1 0 0 .00645000009399998 16 227 74 0 ?98 229 224 225 0 0 1 30 228 79 0
 229 225 230 0 +.00252016488300054 -.000917265002855227 254e-9 -.34202014332569
 -.939692620785901 0 16 229 77 0 ?231 232 227 228 0 0 1 31 230 82 0 232 228 233
 0 +.00306419612933604 -.01143573563903784 254e-9 0 0 1 1 0 0 .00645000009399998
 16 232 80 0 ?234 235 229 230 0 0 1 30 233 85 0 235 230 236 0 +-.001723894308976
245 -.00205445723597514 254e-9 -.766044443118977 .642787609686542 0 16 235 83 0
 ?237 238 232 233 0 0 1 31 236 88 0 238 233 239 0 +0 0 254e-9 0 0 1 1 0 0 .00645
000009399997 16 238 86 0 ?86 240 235 236 0 0 1 30 239 91 0 240 236 241 0 +.00264
115931183151 .00046570764702524 254e-9 .1736481776669095 -.984807753012212 0 16
 240 89 0 ?242 243 238 239 0 0 1 31 241 94 0 243 239 244 0 +.00837153950970188 -
.00837153950970183 254e-9 0 0 1 1 0 0 .00645000009399998 16 243 92 0 ?245 246 24
0 241 0 0 1 30 244 97 0 246 241 247 0 +-.000465707647025278 -.00264115931183136
 254e-9 -.984807753012208 .173648177666933 0 16 246 95 0 ?248 249 243 244 0 0 1
 31 247 100 0 249 244 250 0 +0 0 254e-9 0 0 1 1 0 0 .00645000009399998 16 249 98
 0 ?74 251 246 247 0 0 1 30 250 103 0 251 247 252 0 +.00205445723597529 .0017238
94308976285 254e-9 .642787609686524 -.766044443118991 0 16 251 101 0 ?253 254 24
9 250 0 0 1 31 252 106 0 254 250 255 0 +.01143573563903786 -.00306419612933597 2
54e-9 0 0 1 1 0 0 .00645000009399998 16 254 104 0 ?256 257 251 252 0 0 1 30 255
 109 0 257 252 258 0 +.000917265002855111 -.00252016488300042 254e-9 -.939692620
785909 -.342020143325666 0 16 257 107 0 ?259 260 254 255 0 0 1 31 258 112 0 260
 255 261 0 +0 0 254e-9 0 0 1 1 0 0 .00645000009399998 16 260 110 0 ?62 262 257 2
58 0 0 1 30 261 115 0 262 258 263 0 +.000917265002855223 .002520164883000535 254
e-9 .939692620785901 -.342020143325689 0 16 262 113 0 ?264 265 260 261 0 0 1 31
 263 118 0 265 261 266 0 +.01143573563903784 .00306419612933604 254e-9 0 0 1 1 0
 0 .00645000009399998 16 265 116 0 ?267 268 262 263 0 0 1 30 266 121 0 268 263 2
69 0 +.002054457235975145 -.001723894308976245 254e-9 -.642787609686542 -.766044
443118977 0 16 268 119 0 ?270 271 265 266 0 0 1 31 269 124 0 271 266 272 0 +0 0
 254e-9 0 0 1 1 0 0 .00645000009399997 16 271 122 0 ?50 273 268 269 0 0 1 30 272
 127 0 273 269 274 0 +-.000465707647025238 .00264115931183151 254e-9 .9848077530
12212 .173648177666909 0 16 273 125 0 ?275 276 271 272 0 0 1 31 274 130 0 276 27
2 277 0 +.00837153950970183 .00837153950970188 254e-9 0 0 1 1 0 0 .0064500000939
9998 16 276 128 0 ?278 279 273 274 0 0 1 30 277 133 0 279 274 280 0 +.0026411593
11831355 -.000465707647025279 254e-9 -.1736481776669335 -.984807753012208 0 16 2
79 131 0 ?281 282 276 277 0 0 1 31 280 136 0 282 277 283 0 +0 0 254e-9 0 0 1 1 0
 0 .00645000009399998 16 282 134 0 ?38 284 279 280 0 0 1 30 283 139 0 284 280 28
5 0 +-.001723894308976245 .00205445723597514 254e-9 .766044443118976 .6427876096
86542 0 16 284 137 0 ?286 287 282 283 0 0 1 31 285 142 0 287 283 288 0 +.0030641
9612933597 .01143573563903786 254e-9 0 0 1 1 0 0 .00645000009399998 16 287 140 0
 ?289 290 284 285 0 0 1 30 288 145 0 290 285 291 0 +.00252016488300042 .00091726
5002855112 254e-9 .342020143325666 -.939692620785909 0 16 290 143 0 ?292 18 287
 288 0 0 1 31 291 148 0 293 288 11 0 +0 0 254e-9 0 0 1 1 0 0 .00645000009399997
 16 293 146 0 ?19 14 18 291 18 18 1 30 11 151 0 14 291 5 0 +-.00252016488300042
 .000917265002855112 254e-9 .342020143325666 .939692620785909 0 16 14 149 0 ?168
 8 293 11 0 0 1 17 168 0 0 0 0 21 24 14 0 0 +17 19 0 163 17 29 9 294 293 0 0 +16
 18 356 0 ?17 293 290 291 293 293 1 17 17 0 163 24 19 21 15 18 0 168 +17 29 0 16
3 19 32 25 292 290 0 294 -17 294 0 0 0 0 25 19 293 0 0 -17 32 0 163 29 35 30 289
 287 0 292 -17 292 0 0 0 0 30 29 290 0 0 +17 35 0 163 32 38 33 286 284 0 289 -17
 289 0 0 0 0 33 32 287 0 0 +17 38 0 163 35 41 36 295 282 0 286 +17 286 0 0 0 0 3
6 35 284 0 0 +17 41 0 163 38 44 39 281 279 0 295 -17 295 0 0 0 0 39 38 282 0 0 -
17 44 0 163 41 47 42 278 276 0 281 -17 281 0 0 0 0 42 41 279 0 0 +17 47 0 163 44
 50 45 275 273 0 278 -17 278 0 0 0 0 45 44 276 0 0 +17 50 0 163 47 53 48 296 271
 0 275 +17 275 0 0 0 0 48 47 273 0 0 +17 53 0 163 50 56 51 270 268 0 296 -17 296
 0 0 0 0 51 50 271 0 0 -17 56 0 163 53 59 54 267 265 0 270 -17 270 0 0 0 0 54 53
 268 0 0 +17 59 0 163 56 62 57 264 262 0 267 -17 267 0 0 0 0 57 56 265 0 0 +17 6
2 0 163 59 65 60 297 260 0 264 +17 264 0 0 0 0 60 59 262 0 0 +17 65 0 163 62 68
 63 259 257 0 297 -17 297 0 0 0 0 63 62 260 0 0 -17 68 0 163 65 71 66 256 254 0
 259 -17 259 0 0 0 0 66 65 257 0 0 +17 71 0 163 68 74 69 253 251 0 256 -17 256 0
 0 0 0 69 68 254 0 0 +17 74 0 163 71 77 72 298 249 0 253 +17 253 0 0 0 0 72 71 2
51 0 0 +17 77 0 163 74 80 75 248 246 0 298 -17 298 0 0 0 0 75 74 249 0 0 -17 80
 0 163 77 83 78 245 243 0 248 -17 248 0 0 0 0 78 77 246 0 0 +17 83 0 163 80 86 8
1 242 240 0 245 -17 245 0 0 0 0 81 80 243 0 0 +17 86 0 163 83 89 84 299 238 0 24
2 +17 242 0 0 0 0 84 83 240 0 0 +17 89 0 163 86 92 87 237 235 0 299 -17 299 0 0
 0 0 87 86 238 0 0 -17 92 0 163 89 95 90 234 232 0 237 -17 237 0 0 0 0 90 89 235
 0 0 +17 95 0 163 92 98 93 231 229 0 234 -17 234 0 0 0 0 93 92 232 0 0 +17 98 0
 163 95 101 96 300 227 0 231 +17 231 0 0 0 0 96 95 229 0 0 +17 101 0 163 98 104
 99 226 224 0 300 -17 300 0 0 0 0 99 98 227 0 0 -17 104 0 163 101 107 102 223 22
1 0 226 -17 226 0 0 0 0 102 101 224 0 0 +17 107 0 163 104 110 105 220 218 0 223
 -17 223 0 0 0 0 105 104 221 0 0 +17 110 0 163 107 113 108 301 216 0 220 +17 220
 0 0 0 0 108 107 218 0 0 +17 113 0 163 110 116 111 215 213 0 301 -17 301 0 0 0 0
 111 110 216 0 0 -17 116 0 163 113 119 114 212 210 0 215 -17 215 0 0 0 0 114 113
 213 0 0 +17 119 0 163 116 122 117 209 207 0 212 -17 212 0 0 0 0 117 116 210 0 0
 +17 122 0 163 119 125 120 302 205 0 209 +17 209 0 0 0 0 120 119 207 0 0 +17 125
 0 163 122 128 123 204 202 0 302 -17 302 0 0 0 0 123 122 205 0 0 -17 128 0 163 1
25 131 126 201 199 0 204 -17 204 0 0 0 0 126 125 202 0 0 +17 131 0 163 128 134 1
29 198 196 0 201 -17 201 0 0 0 0 129 128 199 0 0 +17 134 0 163 131 137 132 303 1
94 0 198 +17 198 0 0 0 0 132 131 196 0 0 +17 137 0 163 134 140 135 193 191 0 303
 -17 303 0 0 0 0 135 134 194 0 0 -17 140 0 163 137 143 138 190 188 0 193 -17 193
 0 0 0 0 138 137 191 0 0 +17 143 0 163 140 146 141 187 185 0 190 -17 190 0 0 0 0
 141 140 188 0 0 +17 146 0 163 143 149 144 304 183 0 187 +17 187 0 0 0 0 144 143
 185 0 0 +17 149 0 163 146 152 147 182 180 0 304 -17 304 0 0 0 0 147 146 183 0 0
 -17 152 0 163 149 155 150 179 177 0 182 -17 182 0 0 0 0 150 149 180 0 0 +17 155
 0 163 152 158 153 176 172 0 179 -17 179 0 0 0 0 153 152 177 0 0 +17 158 0 163 1
55 161 156 167 170 0 176 +17 176 0 0 0 0 156 155 172 0 0 +17 167 0 0 0 0 159 158
 170 0 0 -14 255 10 1 0 ?0 0 163 3 4 +0 0 0 0 3 15 165 7 0 305 10 0 17 305 0 165
 305 305 0 13 8 0 0 -17 13 0 0 0 0 0 305 8 0 0 +1 0 
